<svg id="visual" viewBox="0 0 960 540" width="960" height="540" xmlns="http://www.w3.org/2000/svg" xmlns:xlink="http://www.w3.org/1999/xlink" version="1.1"><rect x="0" y="0" width="960" height="540" fill="#dedede"></rect><path d="M0 390L22.8 389.2C45.7 388.3 91.3 386.7 137 386.3C182.7 386 228.3 387 274 380.8C319.7 374.7 365.3 361.3 411.2 356C457 350.7 503 353.3 548.8 348.8C594.7 344.3 640.3 332.7 686 333.2C731.7 333.7 777.3 346.3 823 349.8C868.7 353.3 914.3 347.7 937.2 344.8L960 342L960 541L937.2 541C914.3 541 868.7 541 823 541C777.3 541 731.7 541 686 541C640.3 541 594.7 541 548.8 541C503 541 457 541 411.2 541C365.3 541 319.7 541 274 541C228.3 541 182.7 541 137 541C91.3 541 45.7 541 22.8 541L0 541Z" fill="#fcaf3c"></path><path d="M0 370L22.8 372.2C45.7 374.3 91.3 378.7 137 379.8C182.7 381 228.3 379 274 385.5C319.7 392 365.3 407 411.2 415.8C457 424.7 503 427.3 548.8 422.8C594.7 418.3 640.3 406.7 686 406.7C731.7 406.7 777.3 418.3 823 418.8C868.7 419.3 914.3 408.7 937.2 403.3L960 398L960 541L937.2 541C914.3 541 868.7 541 823 541C777.3 541 731.7 541 686 541C640.3 541 594.7 541 548.8 541C503 541 457 541 411.2 541C365.3 541 319.7 541 274 541C228.3 541 182.7 541 137 541C91.3 541 45.7 541 22.8 541L0 541Z" fill="#fba230"></path><path d="M0 405L22.8 408.7C45.7 412.3 91.3 419.7 137 426.2C182.7 432.7 228.3 438.3 274 434.3C319.7 430.3 365.3 416.7 411.2 419.3C457 422 503 441 548.8 447C594.7 453 640.3 446 686 445.3C731.7 444.7 777.3 450.3 823 442.8C868.7 435.3 914.3 414.7 937.2 404.3L960 394L960 541L937.2 541C914.3 541 868.7 541 823 541C777.3 541 731.7 541 686 541C640.3 541 594.7 541 548.8 541C503 541 457 541 411.2 541C365.3 541 319.7 541 274 541C228.3 541 182.7 541 137 541C91.3 541 45.7 541 22.8 541L0 541Z" fill="#fa9424"></path><path d="M0 458L22.8 459.7C45.7 461.3 91.3 464.7 137 467.5C182.7 470.3 228.3 472.7 274 472.5C319.7 472.3 365.3 469.7 411.2 466.7C457 463.7 503 460.3 548.8 461.7C594.7 463 640.3 469 686 474C731.7 479 777.3 483 823 483.7C868.7 484.3 914.3 481.7 937.2 480.3L960 479L960 541L937.2 541C914.3 541 868.7 541 823 541C777.3 541 731.7 541 686 541C640.3 541 594.7 541 548.8 541C503 541 457 541 411.2 541C365.3 541 319.7 541 274 541C228.3 541 182.7 541 137 541C91.3 541 45.7 541 22.8 541L0 541Z" fill="#f98619"></path><path d="M0 474L22.8 480.5C45.7 487 91.3 500 137 506.3C182.7 512.7 228.3 512.3 274 511.8C319.7 511.3 365.3 510.7 411.2 504C457 497.3 503 484.7 548.8 485.5C594.7 486.3 640.3 500.7 686 505C731.7 509.3 777.3 503.7 823 499.2C868.7 494.7 914.3 491.3 937.2 489.7L960 488L960 541L937.2 541C914.3 541 868.7 541 823 541C777.3 541 731.7 541 686 541C640.3 541 594.7 541 548.8 541C503 541 457 541 411.2 541C365.3 541 319.7 541 274 541C228.3 541 182.7 541 137 541C91.3 541 45.7 541 22.8 541L0 541Z" fill="#f7770f"></path></svg>